<svg width="162" height="114" viewBox="0 0 162 114" fill="none" xmlns="http://www.w3.org/2000/svg">
<path d="M14 1C6.8203 1 1 6.8203 1 14V100C1 107.18 6.8203 113 14 113H148C155.18 113 161 107.18 161 100V14C161 6.8203 155.18 1 148 1H14Z" stroke="#197686" stroke-width="2"/>
<path d="M22.1445 15.2188V18.6992H20.3281V15.2188H22.1445ZM21.9219 34.3555V37.4961H20.1172V34.3555H21.9219ZM23.4453 30.5352C23.4453 30.0898 23.3594 29.7031 23.1875 29.375C23.0234 29.0469 22.7461 28.7539 22.3555 28.4961C21.9727 28.2383 21.457 27.9922 20.8086 27.7578C19.8008 27.3906 18.918 26.9883 18.1602 26.5508C17.4023 26.1055 16.8125 25.5547 16.3906 24.8984C15.9766 24.2422 15.7695 23.4141 15.7695 22.4141C15.7695 21.4531 15.9922 20.6211 16.4375 19.918C16.8906 19.207 17.5195 18.6602 18.3242 18.2773C19.1289 17.8867 20.0625 17.6914 21.125 17.6914C21.9531 17.6914 22.6953 17.8164 23.3516 18.0664C24.0156 18.3086 24.582 18.6641 25.0508 19.1328C25.5273 19.6016 25.8906 20.1797 26.1406 20.8672C26.3984 21.5469 26.5273 22.3242 26.5273 23.1992H23.4336C23.4336 22.7148 23.3789 22.2852 23.2695 21.9102C23.1602 21.5352 23.0039 21.2188 22.8008 20.9609C22.5977 20.6953 22.3516 20.4961 22.0625 20.3633C21.7812 20.2305 21.4609 20.1641 21.1016 20.1641C20.5859 20.1641 20.1602 20.2617 19.8242 20.457C19.4961 20.6523 19.2539 20.918 19.0977 21.2539C18.9492 21.5898 18.875 21.9766 18.875 22.4141C18.875 22.8359 18.9531 23.207 19.1094 23.5273C19.2734 23.8398 19.5469 24.125 19.9297 24.3828C20.3203 24.6406 20.8555 24.9023 21.5352 25.168C22.5508 25.543 23.4336 25.957 24.1836 26.4102C24.9336 26.8555 25.5156 27.4023 25.9297 28.0508C26.3438 28.6992 26.5508 29.5195 26.5508 30.5117C26.5508 31.5273 26.3164 32.3867 25.8477 33.0898C25.3867 33.793 24.7383 34.3281 23.9023 34.6953C23.0664 35.0625 22.0938 35.2461 20.9844 35.2461C20.2734 35.2461 19.5703 35.1523 18.875 34.9648C18.1797 34.7773 17.5469 34.4727 16.9766 34.0508C16.4141 33.6211 15.9648 33.0547 15.6289 32.3516C15.293 31.6406 15.125 30.7695 15.125 29.7383H18.2305C18.2305 30.332 18.3086 30.8242 18.4648 31.2148C18.6211 31.6055 18.832 31.918 19.0977 32.1523C19.3633 32.3789 19.6602 32.5391 19.9883 32.6328C20.3164 32.7266 20.6484 32.7734 20.9844 32.7734C21.5312 32.7734 21.9844 32.6797 22.3438 32.4922C22.7109 32.3047 22.9844 32.043 23.1641 31.707C23.3516 31.3633 23.4453 30.9727 23.4453 30.5352ZM36.9102 17.8906V35H33.8047V21.5117L29.6914 22.8711V20.3633L36.5586 17.8906H36.9102ZM45.7227 27.1484L43.25 26.5508L44.1992 17.9375H53.5859V20.5039H46.7656L46.3203 24.4883C46.5625 24.3398 46.9141 24.1914 47.375 24.043C47.8438 23.8867 48.3711 23.8086 48.957 23.8086C49.7695 23.8086 50.4961 23.9414 51.1367 24.207C51.7773 24.4648 52.3203 24.8398 52.7656 25.332C53.2188 25.8242 53.5586 26.4258 53.7852 27.1367C54.0195 27.8398 54.1367 28.6367 54.1367 29.5273C54.1367 30.3086 54.0195 31.043 53.7852 31.7305C53.5586 32.4102 53.2109 33.0156 52.7422 33.5469C52.2734 34.0703 51.6836 34.4844 50.9727 34.7891C50.2617 35.0859 49.4258 35.2344 48.4648 35.2344C47.7383 35.2344 47.0391 35.1289 46.3672 34.918C45.7031 34.6992 45.1055 34.3828 44.5742 33.9688C44.043 33.5469 43.6172 33.0312 43.2969 32.4219C42.9844 31.8125 42.8125 31.1133 42.7812 30.3242H45.8398C45.8945 30.8477 46.0352 31.293 46.2617 31.6602C46.4883 32.0273 46.7852 32.3086 47.1523 32.5039C47.5273 32.6992 47.9609 32.7969 48.4531 32.7969C48.8984 32.7969 49.2812 32.7148 49.6016 32.5508C49.9297 32.3789 50.1992 32.1406 50.4102 31.8359C50.6211 31.5312 50.7773 31.1719 50.8789 30.7578C50.9805 30.3438 51.0312 29.8906 51.0312 29.3984C51.0312 28.9219 50.9727 28.4883 50.8555 28.0977C50.7383 27.6992 50.5586 27.3555 50.3164 27.0664C50.0742 26.7773 49.7695 26.5547 49.4023 26.3984C49.043 26.2422 48.6211 26.1641 48.1367 26.1641C47.4883 26.1641 46.9883 26.2617 46.6367 26.457C46.293 26.6523 45.9883 26.8828 45.7227 27.1484ZM67.6602 25.0039V27.875C67.6602 29.1875 67.5273 30.3086 67.2617 31.2383C66.9961 32.168 66.6133 32.9297 66.1133 33.5234C65.6133 34.1094 65.0156 34.543 64.3203 34.8242C63.625 35.0977 62.8516 35.2344 62 35.2344C61.3203 35.2344 60.6875 35.1484 60.1016 34.9766C59.5156 34.7969 58.9883 34.5234 58.5195 34.1562C58.0586 33.7812 57.6602 33.3047 57.3242 32.7266C56.9961 32.1484 56.7422 31.457 56.5625 30.6523C56.3906 29.8477 56.3047 28.9219 56.3047 27.875V25.0039C56.3047 23.6914 56.4375 22.5742 56.7031 21.6523C56.9766 20.7305 57.3633 19.9766 57.8633 19.3906C58.3633 18.8047 58.9609 18.3789 59.6562 18.1133C60.3516 17.8398 61.125 17.7031 61.9766 17.7031C62.6641 17.7031 63.2969 17.7891 63.875 17.9609C64.4609 18.1328 64.9844 18.4023 65.4453 18.7695C65.9141 19.1289 66.3125 19.5977 66.6406 20.1758C66.9688 20.7461 67.2188 21.4336 67.3906 22.2383C67.5703 23.0352 67.6602 23.957 67.6602 25.0039ZM64.5664 28.2969V24.5703C64.5664 23.9141 64.5273 23.3438 64.4492 22.8594C64.3789 22.3672 64.2734 21.9492 64.1328 21.6055C63.9922 21.2617 63.8164 20.9844 63.6055 20.7734C63.3945 20.5547 63.1523 20.3945 62.8789 20.293C62.6055 20.1914 62.3047 20.1406 61.9766 20.1406C61.5703 20.1406 61.207 20.2227 60.8867 20.3867C60.5664 20.543 60.2969 20.793 60.0781 21.1367C59.8594 21.4805 59.6914 21.9375 59.5742 22.5078C59.4648 23.0703 59.4102 23.7578 59.4102 24.5703V28.2969C59.4102 28.9531 59.4453 29.5273 59.5156 30.0195C59.5938 30.5117 59.7031 30.9336 59.8438 31.2852C59.9922 31.6367 60.168 31.9258 60.3711 32.1523C60.582 32.3711 60.8242 32.5352 61.0977 32.6445C61.3711 32.7461 61.6719 32.7969 62 32.7969C62.4141 32.7969 62.7773 32.7148 63.0898 32.5508C63.4102 32.3867 63.6797 32.1289 63.8984 31.7773C64.1172 31.418 64.2812 30.9531 64.3906 30.3828C64.5078 29.8047 64.5664 29.1094 64.5664 28.2969Z" fill="white"/>
<path d="M18.9922 67.2734L22.3438 57.625H23.9766L19.7656 69H18.6016L18.9922 67.2734ZM15.8594 57.625L19.1797 67.2734L19.5938 69H18.4297L14.2266 57.625H15.8594ZM27.125 57.625V69H25.6172V57.625H27.125ZM34.0625 64.5391H31.0234V63.3125H34.0625C34.651 63.3125 35.1276 63.2188 35.4922 63.0312C35.8568 62.8438 36.1224 62.5833 36.2891 62.25C36.4609 61.9167 36.5469 61.5365 36.5469 61.1094C36.5469 60.7188 36.4609 60.3516 36.2891 60.0078C36.1224 59.6641 35.8568 59.388 35.4922 59.1797C35.1276 58.9661 34.651 58.8594 34.0625 58.8594H31.375V69H29.8672V57.625H34.0625C34.9219 57.625 35.6484 57.7734 36.2422 58.0703C36.8359 58.3672 37.2865 58.7786 37.5938 59.3047C37.901 59.8255 38.0547 60.4219 38.0547 61.0938C38.0547 61.8229 37.901 62.4453 37.5938 62.9609C37.2865 63.4766 36.8359 63.8698 36.2422 64.1406C35.6484 64.4062 34.9219 64.5391 34.0625 64.5391ZM48.1406 58.6328L44.375 69H42.8359L47.1719 57.625H48.1641L48.1406 58.6328ZM51.2969 69L47.5234 58.6328L47.5 57.625H48.4922L52.8438 69H51.2969ZM51.1016 64.7891V66.0234H44.7109V64.7891H51.1016ZM61.1406 65.3828H62.6406C62.5625 66.1016 62.3568 66.7448 62.0234 67.3125C61.6901 67.8802 61.2188 68.3307 60.6094 68.6641C60 68.9922 59.2396 69.1562 58.3281 69.1562C57.6615 69.1562 57.0547 69.0312 56.5078 68.7812C55.9661 68.5312 55.5 68.1771 55.1094 67.7188C54.7188 67.2552 54.4167 66.7005 54.2031 66.0547C53.9948 65.4036 53.8906 64.6797 53.8906 63.8828V62.75C53.8906 61.9531 53.9948 61.2318 54.2031 60.5859C54.4167 59.9349 54.7214 59.3776 55.1172 58.9141C55.5182 58.4505 56 58.0938 56.5625 57.8438C57.125 57.5938 57.7578 57.4688 58.4609 57.4688C59.3203 57.4688 60.0469 57.6302 60.6406 57.9531C61.2344 58.276 61.6953 58.724 62.0234 59.2969C62.3568 59.8646 62.5625 60.5234 62.6406 61.2734H61.1406C61.0677 60.7422 60.9323 60.2865 60.7344 59.9062C60.5365 59.5208 60.2552 59.224 59.8906 59.0156C59.526 58.8073 59.0495 58.7031 58.4609 58.7031C57.9557 58.7031 57.5104 58.7995 57.125 58.9922C56.7448 59.1849 56.4245 59.4583 56.1641 59.8125C55.9089 60.1667 55.7161 60.5911 55.5859 61.0859C55.4557 61.5807 55.3906 62.1302 55.3906 62.7344V63.8828C55.3906 64.4401 55.4479 64.9635 55.5625 65.4531C55.6823 65.9427 55.862 66.3724 56.1016 66.7422C56.3411 67.112 56.6458 67.4036 57.0156 67.6172C57.3854 67.8255 57.8229 67.9297 58.3281 67.9297C58.9688 67.9297 59.4792 67.8281 59.8594 67.625C60.2396 67.4219 60.526 67.1302 60.7188 66.75C60.9167 66.3698 61.0573 65.9141 61.1406 65.3828ZM71.5625 65.3828H73.0625C72.9844 66.1016 72.7786 66.7448 72.4453 67.3125C72.112 67.8802 71.6406 68.3307 71.0312 68.6641C70.4219 68.9922 69.6615 69.1562 68.75 69.1562C68.0833 69.1562 67.4766 69.0312 66.9297 68.7812C66.388 68.5312 65.9219 68.1771 65.5312 67.7188C65.1406 67.2552 64.8385 66.7005 64.625 66.0547C64.4167 65.4036 64.3125 64.6797 64.3125 63.8828V62.75C64.3125 61.9531 64.4167 61.2318 64.625 60.5859C64.8385 59.9349 65.1432 59.3776 65.5391 58.9141C65.9401 58.4505 66.4219 58.0938 66.9844 57.8438C67.5469 57.5938 68.1797 57.4688 68.8828 57.4688C69.7422 57.4688 70.4688 57.6302 71.0625 57.9531C71.6562 58.276 72.1172 58.724 72.4453 59.2969C72.7786 59.8646 72.9844 60.5234 73.0625 61.2734H71.5625C71.4896 60.7422 71.3542 60.2865 71.1562 59.9062C70.9583 59.5208 70.6771 59.224 70.3125 59.0156C69.9479 58.8073 69.4714 58.7031 68.8828 58.7031C68.3776 58.7031 67.9323 58.7995 67.5469 58.9922C67.1667 59.1849 66.8464 59.4583 66.5859 59.8125C66.3307 60.1667 66.138 60.5911 66.0078 61.0859C65.8776 61.5807 65.8125 62.1302 65.8125 62.7344V63.8828C65.8125 64.4401 65.8698 64.9635 65.9844 65.4531C66.1042 65.9427 66.2839 66.3724 66.5234 66.7422C66.763 67.112 67.0677 67.4036 67.4375 67.6172C67.8073 67.8255 68.2448 67.9297 68.75 67.9297C69.3906 67.9297 69.901 67.8281 70.2812 67.625C70.6615 67.4219 70.9479 67.1302 71.1406 66.75C71.3385 66.3698 71.4792 65.9141 71.5625 65.3828ZM82.3438 67.7734V69H76.3203V67.7734H82.3438ZM76.625 57.625V69H75.1172V57.625H76.625ZM81.5469 62.5156V63.7422H76.3203V62.5156H81.5469ZM82.2656 57.625V58.8594H76.3203V57.625H82.2656ZM90.2734 66.125C90.2734 65.8594 90.2318 65.625 90.1484 65.4219C90.0703 65.2135 89.9297 65.026 89.7266 64.8594C89.5286 64.6927 89.2526 64.5339 88.8984 64.3828C88.5495 64.2318 88.1068 64.0781 87.5703 63.9219C87.0078 63.7552 86.5 63.5703 86.0469 63.3672C85.5938 63.1589 85.2057 62.9219 84.8828 62.6562C84.5599 62.3906 84.3125 62.0859 84.1406 61.7422C83.9688 61.3984 83.8828 61.0052 83.8828 60.5625C83.8828 60.1198 83.974 59.7109 84.1562 59.3359C84.3385 58.9609 84.599 58.6354 84.9375 58.3594C85.2812 58.0781 85.6901 57.8594 86.1641 57.7031C86.638 57.5469 87.1667 57.4688 87.75 57.4688C88.6042 57.4688 89.3281 57.6328 89.9219 57.9609C90.5208 58.2839 90.9766 58.7083 91.2891 59.2344C91.6016 59.7552 91.7578 60.3125 91.7578 60.9062H90.2578C90.2578 60.4792 90.1667 60.1016 89.9844 59.7734C89.8021 59.4401 89.526 59.1797 89.1562 58.9922C88.7865 58.7995 88.3177 58.7031 87.75 58.7031C87.2135 58.7031 86.7708 58.7839 86.4219 58.9453C86.0729 59.1068 85.8125 59.3255 85.6406 59.6016C85.474 59.8776 85.3906 60.1927 85.3906 60.5469C85.3906 60.7865 85.4401 61.0052 85.5391 61.2031C85.6432 61.3958 85.8021 61.5755 86.0156 61.7422C86.2344 61.9089 86.5104 62.0625 86.8438 62.2031C87.1823 62.3438 87.5859 62.4792 88.0547 62.6094C88.7005 62.7917 89.2578 62.9948 89.7266 63.2188C90.1953 63.4427 90.5807 63.6953 90.8828 63.9766C91.1901 64.2526 91.4167 64.5677 91.5625 64.9219C91.7135 65.2708 91.7891 65.6667 91.7891 66.1094C91.7891 66.5729 91.6953 66.9922 91.5078 67.3672C91.3203 67.7422 91.0521 68.0625 90.7031 68.3281C90.3542 68.5938 89.9349 68.7995 89.4453 68.9453C88.9609 69.0859 88.4193 69.1562 87.8203 69.1562C87.2943 69.1562 86.776 69.0833 86.2656 68.9375C85.7604 68.7917 85.2995 68.5729 84.8828 68.2812C84.4714 67.9896 84.1406 67.6302 83.8906 67.2031C83.6458 66.7708 83.5234 66.2708 83.5234 65.7031H85.0234C85.0234 66.0938 85.099 66.4297 85.25 66.7109C85.401 66.987 85.6068 67.2161 85.8672 67.3984C86.1328 67.5807 86.4323 67.7161 86.7656 67.8047C87.1042 67.888 87.4557 67.9297 87.8203 67.9297C88.3464 67.9297 88.7917 67.8568 89.1562 67.7109C89.5208 67.5651 89.7969 67.3568 89.9844 67.0859C90.1771 66.8151 90.2734 66.4948 90.2734 66.125ZM99.7734 66.125C99.7734 65.8594 99.7318 65.625 99.6484 65.4219C99.5703 65.2135 99.4297 65.026 99.2266 64.8594C99.0286 64.6927 98.7526 64.5339 98.3984 64.3828C98.0495 64.2318 97.6068 64.0781 97.0703 63.9219C96.5078 63.7552 96 63.5703 95.5469 63.3672C95.0938 63.1589 94.7057 62.9219 94.3828 62.6562C94.0599 62.3906 93.8125 62.0859 93.6406 61.7422C93.4688 61.3984 93.3828 61.0052 93.3828 60.5625C93.3828 60.1198 93.474 59.7109 93.6562 59.3359C93.8385 58.9609 94.099 58.6354 94.4375 58.3594C94.7812 58.0781 95.1901 57.8594 95.6641 57.7031C96.138 57.5469 96.6667 57.4688 97.25 57.4688C98.1042 57.4688 98.8281 57.6328 99.4219 57.9609C100.021 58.2839 100.477 58.7083 100.789 59.2344C101.102 59.7552 101.258 60.3125 101.258 60.9062H99.7578C99.7578 60.4792 99.6667 60.1016 99.4844 59.7734C99.3021 59.4401 99.026 59.1797 98.6562 58.9922C98.2865 58.7995 97.8177 58.7031 97.25 58.7031C96.7135 58.7031 96.2708 58.7839 95.9219 58.9453C95.5729 59.1068 95.3125 59.3255 95.1406 59.6016C94.974 59.8776 94.8906 60.1927 94.8906 60.5469C94.8906 60.7865 94.9401 61.0052 95.0391 61.2031C95.1432 61.3958 95.3021 61.5755 95.5156 61.7422C95.7344 61.9089 96.0104 62.0625 96.3438 62.2031C96.6823 62.3438 97.0859 62.4792 97.5547 62.6094C98.2005 62.7917 98.7578 62.9948 99.2266 63.2188C99.6953 63.4427 100.081 63.6953 100.383 63.9766C100.69 64.2526 100.917 64.5677 101.062 64.9219C101.214 65.2708 101.289 65.6667 101.289 66.1094C101.289 66.5729 101.195 66.9922 101.008 67.3672C100.82 67.7422 100.552 68.0625 100.203 68.3281C99.8542 68.5938 99.4349 68.7995 98.9453 68.9453C98.4609 69.0859 97.9193 69.1562 97.3203 69.1562C96.7943 69.1562 96.276 69.0833 95.7656 68.9375C95.2604 68.7917 94.7995 68.5729 94.3828 68.2812C93.9714 67.9896 93.6406 67.6302 93.3906 67.2031C93.1458 66.7708 93.0234 66.2708 93.0234 65.7031H94.5234C94.5234 66.0938 94.599 66.4297 94.75 66.7109C94.901 66.987 95.1068 67.2161 95.3672 67.3984C95.6328 67.5807 95.9323 67.7161 96.2656 67.8047C96.6042 67.888 96.9557 67.9297 97.3203 67.9297C97.8464 67.9297 98.2917 67.8568 98.6562 67.7109C99.0208 67.5651 99.2969 67.3568 99.4844 67.0859C99.6771 66.8151 99.7734 66.4948 99.7734 66.125Z" fill="#FAFAFA"/>
<path d="M21.3486 89.9609V91H14.834V90.0908L18.0947 86.4609C18.4958 86.0143 18.8057 85.6361 19.0244 85.3262C19.2477 85.0117 19.4027 84.7314 19.4893 84.4854C19.5804 84.2347 19.626 83.9795 19.626 83.7197C19.626 83.3916 19.5576 83.0954 19.4209 82.8311C19.2887 82.5622 19.0928 82.348 18.833 82.1885C18.5732 82.029 18.2588 81.9492 17.8896 81.9492C17.4476 81.9492 17.0785 82.0358 16.7822 82.209C16.4906 82.3776 16.2718 82.6146 16.126 82.9199C15.9801 83.2253 15.9072 83.5762 15.9072 83.9727H14.6426C14.6426 83.4121 14.7656 82.8994 15.0117 82.4346C15.2578 81.9697 15.6224 81.6006 16.1055 81.3271C16.5885 81.0492 17.1833 80.9102 17.8896 80.9102C18.5186 80.9102 19.0563 81.0218 19.5029 81.2451C19.9495 81.4639 20.2913 81.7738 20.5283 82.1748C20.7699 82.5713 20.8906 83.0361 20.8906 83.5693C20.8906 83.861 20.8405 84.1572 20.7402 84.458C20.6445 84.7542 20.5101 85.0505 20.3369 85.3467C20.1683 85.6429 19.9701 85.9346 19.7422 86.2217C19.5189 86.5088 19.2796 86.7913 19.0244 87.0693L16.3584 89.9609H21.3486ZM28.9502 85.2305V86.748C28.9502 87.5638 28.8773 88.252 28.7314 88.8125C28.5856 89.373 28.376 89.8242 28.1025 90.166C27.8291 90.5078 27.4987 90.7562 27.1113 90.9111C26.7285 91.0615 26.2956 91.1367 25.8125 91.1367C25.4297 91.1367 25.0765 91.0889 24.7529 90.9932C24.4294 90.8975 24.1377 90.7448 23.8779 90.5352C23.6227 90.321 23.404 90.043 23.2217 89.7012C23.0394 89.3594 22.9004 88.9447 22.8047 88.457C22.709 87.9694 22.6611 87.3997 22.6611 86.748V85.2305C22.6611 84.4147 22.734 83.7311 22.8799 83.1797C23.0303 82.6283 23.2422 82.1862 23.5156 81.8535C23.7891 81.5163 24.1172 81.2747 24.5 81.1289C24.8874 80.9831 25.3203 80.9102 25.7988 80.9102C26.1862 80.9102 26.5417 80.958 26.8652 81.0537C27.1934 81.1449 27.485 81.293 27.7402 81.498C27.9954 81.6986 28.2119 81.9674 28.3896 82.3047C28.5719 82.6374 28.7109 83.0452 28.8066 83.5283C28.9023 84.0114 28.9502 84.5788 28.9502 85.2305ZM27.6787 86.9531V85.0186C27.6787 84.5719 27.6514 84.18 27.5967 83.8428C27.5465 83.501 27.4714 83.2093 27.3711 82.9678C27.2708 82.7262 27.1432 82.5303 26.9883 82.3799C26.8379 82.2295 26.6624 82.1201 26.4619 82.0518C26.266 81.9788 26.0449 81.9424 25.7988 81.9424C25.498 81.9424 25.2314 81.9993 24.999 82.1133C24.7666 82.2227 24.5706 82.3981 24.4111 82.6396C24.2562 82.8812 24.1377 83.1979 24.0557 83.5898C23.9736 83.9818 23.9326 84.458 23.9326 85.0186V86.9531C23.9326 87.3997 23.9577 87.7939 24.0078 88.1357C24.0625 88.4775 24.1423 88.7738 24.2471 89.0244C24.3519 89.2705 24.4795 89.4733 24.6299 89.6328C24.7803 89.7923 24.9535 89.9108 25.1494 89.9883C25.3499 90.0612 25.571 90.0977 25.8125 90.0977C26.1224 90.0977 26.3936 90.0384 26.626 89.9199C26.8584 89.8014 27.0521 89.6169 27.207 89.3662C27.3665 89.111 27.485 88.7852 27.5625 88.3887C27.64 87.9876 27.6787 87.5091 27.6787 86.9531ZM35.1162 81.0469L30.9668 91.8545H29.8799L34.0361 81.0469H35.1162ZM37.96 86.2627L36.9482 86.0029L37.4473 81.0469H42.5537V82.2158H38.5205L38.2197 84.9229C38.402 84.818 38.6322 84.7201 38.9102 84.6289C39.1927 84.5378 39.5163 84.4922 39.8809 84.4922C40.3411 84.4922 40.7536 84.5719 41.1182 84.7314C41.4827 84.8864 41.7926 85.1097 42.0479 85.4014C42.3076 85.693 42.5059 86.0439 42.6426 86.4541C42.7793 86.8643 42.8477 87.3223 42.8477 87.8281C42.8477 88.3066 42.7816 88.7464 42.6494 89.1475C42.5218 89.5485 42.3281 89.8994 42.0684 90.2002C41.8086 90.4964 41.4805 90.7266 41.084 90.8906C40.6921 91.0547 40.2295 91.1367 39.6963 91.1367C39.2952 91.1367 38.9147 91.082 38.5547 90.9727C38.1992 90.8587 37.8802 90.6878 37.5977 90.46C37.3197 90.2275 37.0918 89.9404 36.9141 89.5986C36.7409 89.2523 36.6315 88.8467 36.5859 88.3818H37.7891C37.8438 88.7555 37.9531 89.07 38.1172 89.3252C38.2812 89.5804 38.4954 89.7741 38.7598 89.9062C39.0286 90.0339 39.3408 90.0977 39.6963 90.0977C39.9971 90.0977 40.2637 90.0452 40.4961 89.9404C40.7285 89.8356 40.9245 89.6852 41.084 89.4893C41.2435 89.2933 41.3643 89.0563 41.4463 88.7783C41.5329 88.5003 41.5762 88.1882 41.5762 87.8418C41.5762 87.5273 41.5329 87.2357 41.4463 86.9668C41.3597 86.6979 41.2298 86.4632 41.0566 86.2627C40.888 86.0622 40.6807 85.9072 40.4346 85.7979C40.1885 85.6839 39.9059 85.627 39.5869 85.627C39.1631 85.627 38.8418 85.6839 38.623 85.7979C38.4089 85.9118 38.1878 86.0667 37.96 86.2627ZM50.7568 89.9609V91H44.2422V90.0908L47.5029 86.4609C47.904 86.0143 48.2139 85.6361 48.4326 85.3262C48.6559 85.0117 48.8109 84.7314 48.8975 84.4854C48.9886 84.2347 49.0342 83.9795 49.0342 83.7197C49.0342 83.3916 48.9658 83.0954 48.8291 82.8311C48.6969 82.5622 48.501 82.348 48.2412 82.1885C47.9814 82.029 47.667 81.9492 47.2979 81.9492C46.8558 81.9492 46.4867 82.0358 46.1904 82.209C45.8988 82.3776 45.68 82.6146 45.5342 82.9199C45.3883 83.2253 45.3154 83.5762 45.3154 83.9727H44.0508C44.0508 83.4121 44.1738 82.8994 44.4199 82.4346C44.666 81.9697 45.0306 81.6006 45.5137 81.3271C45.9967 81.0492 46.5915 80.9102 47.2979 80.9102C47.9268 80.9102 48.4645 81.0218 48.9111 81.2451C49.3577 81.4639 49.6995 81.7738 49.9365 82.1748C50.1781 82.5713 50.2988 83.0361 50.2988 83.5693C50.2988 83.861 50.2487 84.1572 50.1484 84.458C50.0527 84.7542 49.9183 85.0505 49.7451 85.3467C49.5765 85.6429 49.3783 85.9346 49.1504 86.2217C48.9271 86.5088 48.6878 86.7913 48.4326 87.0693L45.7666 89.9609H50.7568Z" fill="#D9D9D9"/>
</svg>
