<svg width="160" height="112" viewBox="0 0 160 112" fill="none" xmlns="http://www.w3.org/2000/svg">
<path d="M13 0.5C6.09644 0.5 0.5 6.09644 0.5 13V99C0.5 105.904 6.09644 111.5 13 111.5H147C153.904 111.5 159.5 105.904 159.5 99V13C159.5 6.09644 153.904 0.5 147 0.5H13Z" fill="#12464E"/>
<path d="M13 0.5C6.09644 0.5 0.5 6.09644 0.5 13V99C0.5 105.904 6.09644 111.5 13 111.5H147C153.904 111.5 159.5 105.904 159.5 99V13C159.5 6.09644 153.904 0.5 147 0.5H13Z" stroke="#197686"/>
<path d="M17.8516 16.9375V34H14.6289V16.9375H17.8516ZM24.7305 24.3086V26.8516H17.0078V24.3086H24.7305ZM25.6328 16.9375V19.4805H17.0078V16.9375H25.6328ZM30.3789 23.9102V34H27.2852V21.3203H30.2148L30.3789 23.9102ZM34.2344 21.2383L34.1875 24.1211C34.0156 24.0898 33.8203 24.0664 33.6016 24.0508C33.3906 24.0352 33.1914 24.0273 33.0039 24.0273C32.5273 24.0273 32.1094 24.0938 31.75 24.2266C31.3906 24.3516 31.0898 24.5352 30.8477 24.7773C30.6133 25.0195 30.4336 25.3164 30.3086 25.668C30.1836 26.0117 30.1133 26.4023 30.0977 26.8398L29.4297 26.7578C29.4297 25.9531 29.5117 25.207 29.6758 24.5195C29.8398 23.832 30.0781 23.2305 30.3906 22.7148C30.7031 22.1992 31.0938 21.8008 31.5625 21.5195C32.0391 21.2305 32.5859 21.0859 33.2031 21.0859C33.375 21.0859 33.5586 21.1016 33.7539 21.1328C33.957 21.1562 34.1172 21.1914 34.2344 21.2383ZM41.3945 34.2344C40.4336 34.2344 39.5703 34.0781 38.8047 33.7656C38.0391 33.4531 37.3867 33.0195 36.8477 32.4648C36.3164 31.9023 35.9062 31.25 35.6172 30.5078C35.3359 29.7578 35.1953 28.9531 35.1953 28.0938V27.625C35.1953 26.6484 35.3359 25.7617 35.6172 24.9648C35.8984 24.1602 36.2969 23.4688 36.8125 22.8906C37.3281 22.3125 37.9453 21.8672 38.6641 21.5547C39.3828 21.2422 40.1758 21.0859 41.043 21.0859C41.9414 21.0859 42.7344 21.2383 43.4219 21.543C44.1094 21.8398 44.6836 22.2617 45.1445 22.8086C45.6055 23.3555 45.9531 24.0117 46.1875 24.7773C46.4219 25.5352 46.5391 26.375 46.5391 27.2969V28.5977H36.6016V26.4648H43.4922V26.2305C43.4766 25.7383 43.3828 25.2891 43.2109 24.8828C43.0391 24.4688 42.7734 24.1406 42.4141 23.8984C42.0547 23.6484 41.5898 23.5234 41.0195 23.5234C40.5586 23.5234 40.1562 23.625 39.8125 23.8281C39.4766 24.0234 39.1953 24.3047 38.9688 24.6719C38.75 25.0312 38.5859 25.4609 38.4766 25.9609C38.3672 26.4609 38.3125 27.0156 38.3125 27.625V28.0938C38.3125 28.625 38.3828 29.1172 38.5234 29.5703C38.6719 30.0234 38.8867 30.418 39.168 30.7539C39.457 31.082 39.8008 31.3398 40.1992 31.5273C40.6055 31.707 41.0664 31.7969 41.582 31.7969C42.2305 31.7969 42.8164 31.6719 43.3398 31.4219C43.8711 31.1641 44.332 30.7852 44.7227 30.2852L46.2812 31.9023C46.0156 32.293 45.6562 32.668 45.2031 33.0273C44.7578 33.3867 44.2188 33.6797 43.5859 33.9062C42.9531 34.125 42.2227 34.2344 41.3945 34.2344ZM54.3086 34.2344C53.3477 34.2344 52.4844 34.0781 51.7188 33.7656C50.9531 33.4531 50.3008 33.0195 49.7617 32.4648C49.2305 31.9023 48.8203 31.25 48.5312 30.5078C48.25 29.7578 48.1094 28.9531 48.1094 28.0938V27.625C48.1094 26.6484 48.25 25.7617 48.5312 24.9648C48.8125 24.1602 49.2109 23.4688 49.7266 22.8906C50.2422 22.3125 50.8594 21.8672 51.5781 21.5547C52.2969 21.2422 53.0898 21.0859 53.957 21.0859C54.8555 21.0859 55.6484 21.2383 56.3359 21.543C57.0234 21.8398 57.5977 22.2617 58.0586 22.8086C58.5195 23.3555 58.8672 24.0117 59.1016 24.7773C59.3359 25.5352 59.4531 26.375 59.4531 27.2969V28.5977H49.5156V26.4648H56.4062V26.2305C56.3906 25.7383 56.2969 25.2891 56.125 24.8828C55.9531 24.4688 55.6875 24.1406 55.3281 23.8984C54.9688 23.6484 54.5039 23.5234 53.9336 23.5234C53.4727 23.5234 53.0703 23.625 52.7266 23.8281C52.3906 24.0234 52.1094 24.3047 51.8828 24.6719C51.6641 25.0312 51.5 25.4609 51.3906 25.9609C51.2812 26.4609 51.2266 27.0156 51.2266 27.625V28.0938C51.2266 28.625 51.2969 29.1172 51.4375 29.5703C51.5859 30.0234 51.8008 30.418 52.082 30.7539C52.3711 31.082 52.7148 31.3398 53.1133 31.5273C53.5195 31.707 53.9805 31.7969 54.4961 31.7969C55.1445 31.7969 55.7305 31.6719 56.2539 31.4219C56.7852 31.1641 57.2461 30.7852 57.6367 30.2852L59.1953 31.9023C58.9297 32.293 58.5703 32.668 58.1172 33.0273C57.6719 33.3867 57.1328 33.6797 56.5 33.9062C55.8672 34.125 55.1367 34.2344 54.3086 34.2344Z" fill="white"/>
<path d="M14.3203 56.625H18.0859C18.9401 56.625 19.6615 56.7552 20.25 57.0156C20.8438 57.276 21.2943 57.6615 21.6016 58.1719C21.9141 58.6771 22.0703 59.2995 22.0703 60.0391C22.0703 60.5599 21.9635 61.0365 21.75 61.4688C21.5417 61.8958 21.2396 62.2604 20.8438 62.5625C20.4531 62.8594 19.9844 63.0807 19.4375 63.2266L19.0156 63.3906H15.4766L15.4609 62.1641H18.1328C18.6745 62.1641 19.125 62.0703 19.4844 61.8828C19.8438 61.6901 20.1146 61.4323 20.2969 61.1094C20.4792 60.7865 20.5703 60.4297 20.5703 60.0391C20.5703 59.6016 20.4844 59.2188 20.3125 58.8906C20.1406 58.5625 19.8698 58.3099 19.5 58.1328C19.1354 57.9505 18.6641 57.8594 18.0859 57.8594H15.8281V68H14.3203V56.625ZM20.9688 68L18.2031 62.8438L19.7734 62.8359L22.5781 67.9062V68H20.9688ZM31.4062 66.7734V68H25.3828V66.7734H31.4062ZM25.6875 56.625V68H24.1797V56.625H25.6875ZM30.6094 61.5156V62.7422H25.3828V61.5156H30.6094ZM31.3281 56.625V57.8594H25.3828V56.625H31.3281ZM41.6797 62.3359V66.5C41.5391 66.7083 41.3151 66.9427 41.0078 67.2031C40.7005 67.4583 40.276 67.6823 39.7344 67.875C39.1979 68.0625 38.5052 68.1562 37.6562 68.1562C36.9635 68.1562 36.3255 68.0365 35.7422 67.7969C35.1641 67.5521 34.6615 67.1979 34.2344 66.7344C33.8125 66.2656 33.4844 65.6979 33.25 65.0312C33.0208 64.3594 32.9062 63.599 32.9062 62.75V61.8672C32.9062 61.0182 33.0052 60.2604 33.2031 59.5938C33.4062 58.9271 33.7031 58.362 34.0938 57.8984C34.4844 57.4297 34.9635 57.0755 35.5312 56.8359C36.099 56.5911 36.75 56.4688 37.4844 56.4688C38.3542 56.4688 39.0807 56.6198 39.6641 56.9219C40.2526 57.2188 40.7109 57.6302 41.0391 58.1562C41.3724 58.6823 41.5859 59.2812 41.6797 59.9531H40.1719C40.1042 59.5417 39.9688 59.1667 39.7656 58.8281C39.5677 58.4896 39.2839 58.2188 38.9141 58.0156C38.5443 57.8073 38.0677 57.7031 37.4844 57.7031C36.9583 57.7031 36.5026 57.7995 36.1172 57.9922C35.7318 58.1849 35.4141 58.4609 35.1641 58.8203C34.9141 59.1797 34.7266 59.6146 34.6016 60.125C34.4818 60.6354 34.4219 61.2109 34.4219 61.8516V62.75C34.4219 63.4062 34.4974 63.9922 34.6484 64.5078C34.8047 65.0234 35.026 65.4635 35.3125 65.8281C35.599 66.1875 35.9401 66.4609 36.3359 66.6484C36.737 66.8359 37.1797 66.9297 37.6641 66.9297C38.2005 66.9297 38.6354 66.8854 38.9688 66.7969C39.3021 66.7031 39.5625 66.5938 39.75 66.4688C39.9375 66.3385 40.0807 66.2161 40.1797 66.1016V63.5547H37.5469V62.3359H41.6797ZM50.6875 56.625H52.1875V64.3203C52.1875 65.1745 51.9974 65.8854 51.6172 66.4531C51.237 67.0208 50.7318 67.4479 50.1016 67.7344C49.4766 68.0156 48.7969 68.1562 48.0625 68.1562C47.2917 68.1562 46.5938 68.0156 45.9688 67.7344C45.349 67.4479 44.8568 67.0208 44.4922 66.4531C44.1328 65.8854 43.9531 65.1745 43.9531 64.3203V56.625H45.4453V64.3203C45.4453 64.9141 45.5547 65.4036 45.7734 65.7891C45.9922 66.1745 46.2969 66.4609 46.6875 66.6484C47.0833 66.8359 47.5417 66.9297 48.0625 66.9297C48.5885 66.9297 49.0469 66.8359 49.4375 66.6484C49.8333 66.4609 50.1406 66.1745 50.3594 65.7891C50.5781 65.4036 50.6875 64.9141 50.6875 64.3203V56.625ZM61.4531 66.7734V68H55.7656V66.7734H61.4531ZM56.0625 56.625V68H54.5547V56.625H56.0625ZM67.5469 57.6328L63.7812 68H62.2422L66.5781 56.625H67.5703L67.5469 57.6328ZM70.7031 68L66.9297 57.6328L66.9062 56.625H67.8984L72.25 68H70.7031ZM70.5078 63.7891V65.0234H64.1172V63.7891H70.5078ZM73.7734 56.625H77.5391C78.3932 56.625 79.1146 56.7552 79.7031 57.0156C80.2969 57.276 80.7474 57.6615 81.0547 58.1719C81.3672 58.6771 81.5234 59.2995 81.5234 60.0391C81.5234 60.5599 81.4167 61.0365 81.2031 61.4688C80.9948 61.8958 80.6927 62.2604 80.2969 62.5625C79.9062 62.8594 79.4375 63.0807 78.8906 63.2266L78.4688 63.3906H74.9297L74.9141 62.1641H77.5859C78.1276 62.1641 78.5781 62.0703 78.9375 61.8828C79.2969 61.6901 79.5677 61.4323 79.75 61.1094C79.9323 60.7865 80.0234 60.4297 80.0234 60.0391C80.0234 59.6016 79.9375 59.2188 79.7656 58.8906C79.5938 58.5625 79.3229 58.3099 78.9531 58.1328C78.5885 57.9505 78.1172 57.8594 77.5391 57.8594H75.2812V68H73.7734V56.625ZM80.4219 68L77.6562 62.8438L79.2266 62.8359L82.0312 67.9062V68H80.4219ZM91.8125 57.6328L88.0469 68H86.5078L90.8438 56.625H91.8359L91.8125 57.6328ZM94.9688 68L91.1953 57.6328L91.1719 56.625H92.1641L96.5156 68H94.9688ZM94.7734 63.7891V65.0234H88.3828V63.7891H94.7734ZM104.812 64.3828H106.312C106.234 65.1016 106.029 65.7448 105.695 66.3125C105.362 66.8802 104.891 67.3307 104.281 67.6641C103.672 67.9922 102.911 68.1562 102 68.1562C101.333 68.1562 100.727 68.0312 100.18 67.7812C99.638 67.5312 99.1719 67.1771 98.7812 66.7188C98.3906 66.2552 98.0885 65.7005 97.875 65.0547C97.6667 64.4036 97.5625 63.6797 97.5625 62.8828V61.75C97.5625 60.9531 97.6667 60.2318 97.875 59.5859C98.0885 58.9349 98.3932 58.3776 98.7891 57.9141C99.1901 57.4505 99.6719 57.0938 100.234 56.8438C100.797 56.5938 101.43 56.4688 102.133 56.4688C102.992 56.4688 103.719 56.6302 104.312 56.9531C104.906 57.276 105.367 57.724 105.695 58.2969C106.029 58.8646 106.234 59.5234 106.312 60.2734H104.812C104.74 59.7422 104.604 59.2865 104.406 58.9062C104.208 58.5208 103.927 58.224 103.562 58.0156C103.198 57.8073 102.721 57.7031 102.133 57.7031C101.628 57.7031 101.182 57.7995 100.797 57.9922C100.417 58.1849 100.096 58.4583 99.8359 58.8125C99.5807 59.1667 99.388 59.5911 99.2578 60.0859C99.1276 60.5807 99.0625 61.1302 99.0625 61.7344V62.8828C99.0625 63.4401 99.1198 63.9635 99.2344 64.4531C99.3542 64.9427 99.5339 65.3724 99.7734 65.7422C100.013 66.112 100.318 66.4036 100.688 66.6172C101.057 66.8255 101.495 66.9297 102 66.9297C102.641 66.9297 103.151 66.8281 103.531 66.625C103.911 66.4219 104.198 66.1302 104.391 65.75C104.589 65.3698 104.729 64.9141 104.812 64.3828ZM115.234 64.3828H116.734C116.656 65.1016 116.451 65.7448 116.117 66.3125C115.784 66.8802 115.312 67.3307 114.703 67.6641C114.094 67.9922 113.333 68.1562 112.422 68.1562C111.755 68.1562 111.148 68.0312 110.602 67.7812C110.06 67.5312 109.594 67.1771 109.203 66.7188C108.812 66.2552 108.51 65.7005 108.297 65.0547C108.089 64.4036 107.984 63.6797 107.984 62.8828V61.75C107.984 60.9531 108.089 60.2318 108.297 59.5859C108.51 58.9349 108.815 58.3776 109.211 57.9141C109.612 57.4505 110.094 57.0938 110.656 56.8438C111.219 56.5938 111.852 56.4688 112.555 56.4688C113.414 56.4688 114.141 56.6302 114.734 56.9531C115.328 57.276 115.789 57.724 116.117 58.2969C116.451 58.8646 116.656 59.5234 116.734 60.2734H115.234C115.161 59.7422 115.026 59.2865 114.828 58.9062C114.63 58.5208 114.349 58.224 113.984 58.0156C113.62 57.8073 113.143 57.7031 112.555 57.7031C112.049 57.7031 111.604 57.7995 111.219 57.9922C110.839 58.1849 110.518 58.4583 110.258 58.8125C110.003 59.1667 109.81 59.5911 109.68 60.0859C109.549 60.5807 109.484 61.1302 109.484 61.7344V62.8828C109.484 63.4401 109.542 63.9635 109.656 64.4531C109.776 64.9427 109.956 65.3724 110.195 65.7422C110.435 66.112 110.74 66.4036 111.109 66.6172C111.479 66.8255 111.917 66.9297 112.422 66.9297C113.062 66.9297 113.573 66.8281 113.953 66.625C114.333 66.4219 114.62 66.1302 114.812 65.75C115.01 65.3698 115.151 64.9141 115.234 64.3828ZM126.016 66.7734V68H119.992V66.7734H126.016ZM120.297 56.625V68H118.789V56.625H120.297ZM125.219 61.5156V62.7422H119.992V61.5156H125.219ZM125.938 56.625V57.8594H119.992V56.625H125.938ZM133.945 65.125C133.945 64.8594 133.904 64.625 133.82 64.4219C133.742 64.2135 133.602 64.026 133.398 63.8594C133.201 63.6927 132.924 63.5339 132.57 63.3828C132.221 63.2318 131.779 63.0781 131.242 62.9219C130.68 62.7552 130.172 62.5703 129.719 62.3672C129.266 62.1589 128.878 61.9219 128.555 61.6562C128.232 61.3906 127.984 61.0859 127.812 60.7422C127.641 60.3984 127.555 60.0052 127.555 59.5625C127.555 59.1198 127.646 58.7109 127.828 58.3359C128.01 57.9609 128.271 57.6354 128.609 57.3594C128.953 57.0781 129.362 56.8594 129.836 56.7031C130.31 56.5469 130.839 56.4688 131.422 56.4688C132.276 56.4688 133 56.6328 133.594 56.9609C134.193 57.2839 134.648 57.7083 134.961 58.2344C135.273 58.7552 135.43 59.3125 135.43 59.9062H133.93C133.93 59.4792 133.839 59.1016 133.656 58.7734C133.474 58.4401 133.198 58.1797 132.828 57.9922C132.458 57.7995 131.99 57.7031 131.422 57.7031C130.885 57.7031 130.443 57.7839 130.094 57.9453C129.745 58.1068 129.484 58.3255 129.312 58.6016C129.146 58.8776 129.062 59.1927 129.062 59.5469C129.062 59.7865 129.112 60.0052 129.211 60.2031C129.315 60.3958 129.474 60.5755 129.688 60.7422C129.906 60.9089 130.182 61.0625 130.516 61.2031C130.854 61.3438 131.258 61.4792 131.727 61.6094C132.372 61.7917 132.93 61.9948 133.398 62.2188C133.867 62.4427 134.253 62.6953 134.555 62.9766C134.862 63.2526 135.089 63.5677 135.234 63.9219C135.385 64.2708 135.461 64.6667 135.461 65.1094C135.461 65.5729 135.367 65.9922 135.18 66.3672C134.992 66.7422 134.724 67.0625 134.375 67.3281C134.026 67.5938 133.607 67.7995 133.117 67.9453C132.633 68.0859 132.091 68.1562 131.492 68.1562C130.966 68.1562 130.448 68.0833 129.938 67.9375C129.432 67.7917 128.971 67.5729 128.555 67.2812C128.143 66.9896 127.812 66.6302 127.562 66.2031C127.318 65.7708 127.195 65.2708 127.195 64.7031H128.695C128.695 65.0938 128.771 65.4297 128.922 65.7109C129.073 65.987 129.279 66.2161 129.539 66.3984C129.805 66.5807 130.104 66.7161 130.438 66.8047C130.776 66.888 131.128 66.9297 131.492 66.9297C132.018 66.9297 132.464 66.8568 132.828 66.7109C133.193 66.5651 133.469 66.3568 133.656 66.0859C133.849 65.8151 133.945 65.4948 133.945 65.125ZM143.445 65.125C143.445 64.8594 143.404 64.625 143.32 64.4219C143.242 64.2135 143.102 64.026 142.898 63.8594C142.701 63.6927 142.424 63.5339 142.07 63.3828C141.721 63.2318 141.279 63.0781 140.742 62.9219C140.18 62.7552 139.672 62.5703 139.219 62.3672C138.766 62.1589 138.378 61.9219 138.055 61.6562C137.732 61.3906 137.484 61.0859 137.312 60.7422C137.141 60.3984 137.055 60.0052 137.055 59.5625C137.055 59.1198 137.146 58.7109 137.328 58.3359C137.51 57.9609 137.771 57.6354 138.109 57.3594C138.453 57.0781 138.862 56.8594 139.336 56.7031C139.81 56.5469 140.339 56.4688 140.922 56.4688C141.776 56.4688 142.5 56.6328 143.094 56.9609C143.693 57.2839 144.148 57.7083 144.461 58.2344C144.773 58.7552 144.93 59.3125 144.93 59.9062H143.43C143.43 59.4792 143.339 59.1016 143.156 58.7734C142.974 58.4401 142.698 58.1797 142.328 57.9922C141.958 57.7995 141.49 57.7031 140.922 57.7031C140.385 57.7031 139.943 57.7839 139.594 57.9453C139.245 58.1068 138.984 58.3255 138.812 58.6016C138.646 58.8776 138.562 59.1927 138.562 59.5469C138.562 59.7865 138.612 60.0052 138.711 60.2031C138.815 60.3958 138.974 60.5755 139.188 60.7422C139.406 60.9089 139.682 61.0625 140.016 61.2031C140.354 61.3438 140.758 61.4792 141.227 61.6094C141.872 61.7917 142.43 61.9948 142.898 62.2188C143.367 62.4427 143.753 62.6953 144.055 62.9766C144.362 63.2526 144.589 63.5677 144.734 63.9219C144.885 64.2708 144.961 64.6667 144.961 65.1094C144.961 65.5729 144.867 65.9922 144.68 66.3672C144.492 66.7422 144.224 67.0625 143.875 67.3281C143.526 67.5938 143.107 67.7995 142.617 67.9453C142.133 68.0859 141.591 68.1562 140.992 68.1562C140.466 68.1562 139.948 68.0833 139.438 67.9375C138.932 67.7917 138.471 67.5729 138.055 67.2812C137.643 66.9896 137.312 66.6302 137.062 66.2031C136.818 65.7708 136.695 65.2708 136.695 64.7031H138.195C138.195 65.0938 138.271 65.4297 138.422 65.7109C138.573 65.987 138.779 66.2161 139.039 66.3984C139.305 66.5807 139.604 66.7161 139.938 66.8047C140.276 66.888 140.628 66.9297 140.992 66.9297C141.518 66.9297 141.964 66.8568 142.328 66.7109C142.693 66.5651 142.969 66.3568 143.156 66.0859C143.349 65.8151 143.445 65.4948 143.445 65.125Z" fill="#FAFAFA"/>
<path d="M20.3486 88.9609V90H13.834V89.0908L17.0947 85.4609C17.4958 85.0143 17.8057 84.6361 18.0244 84.3262C18.2477 84.0117 18.4027 83.7314 18.4893 83.4854C18.5804 83.2347 18.626 82.9795 18.626 82.7197C18.626 82.3916 18.5576 82.0954 18.4209 81.8311C18.2887 81.5622 18.0928 81.348 17.833 81.1885C17.5732 81.029 17.2588 80.9492 16.8896 80.9492C16.4476 80.9492 16.0785 81.0358 15.7822 81.209C15.4906 81.3776 15.2718 81.6146 15.126 81.9199C14.9801 82.2253 14.9072 82.5762 14.9072 82.9727H13.6426C13.6426 82.4121 13.7656 81.8994 14.0117 81.4346C14.2578 80.9697 14.6224 80.6006 15.1055 80.3271C15.5885 80.0492 16.1833 79.9102 16.8896 79.9102C17.5186 79.9102 18.0563 80.0218 18.5029 80.2451C18.9495 80.4639 19.2913 80.7738 19.5283 81.1748C19.7699 81.5713 19.8906 82.0361 19.8906 82.5693C19.8906 82.861 19.8405 83.1572 19.7402 83.458C19.6445 83.7542 19.5101 84.0505 19.3369 84.3467C19.1683 84.6429 18.9701 84.9346 18.7422 85.2217C18.5189 85.5088 18.2796 85.7913 18.0244 86.0693L15.3584 88.9609H20.3486ZM27.9502 84.2305V85.748C27.9502 86.5638 27.8773 87.252 27.7314 87.8125C27.5856 88.373 27.376 88.8242 27.1025 89.166C26.8291 89.5078 26.4987 89.7562 26.1113 89.9111C25.7285 90.0615 25.2956 90.1367 24.8125 90.1367C24.4297 90.1367 24.0765 90.0889 23.7529 89.9932C23.4294 89.8975 23.1377 89.7448 22.8779 89.5352C22.6227 89.321 22.404 89.043 22.2217 88.7012C22.0394 88.3594 21.9004 87.9447 21.8047 87.457C21.709 86.9694 21.6611 86.3997 21.6611 85.748V84.2305C21.6611 83.4147 21.734 82.7311 21.8799 82.1797C22.0303 81.6283 22.2422 81.1862 22.5156 80.8535C22.7891 80.5163 23.1172 80.2747 23.5 80.1289C23.8874 79.9831 24.3203 79.9102 24.7988 79.9102C25.1862 79.9102 25.5417 79.958 25.8652 80.0537C26.1934 80.1449 26.485 80.293 26.7402 80.498C26.9954 80.6986 27.2119 80.9674 27.3896 81.3047C27.5719 81.6374 27.7109 82.0452 27.8066 82.5283C27.9023 83.0114 27.9502 83.5788 27.9502 84.2305ZM26.6787 85.9531V84.0186C26.6787 83.5719 26.6514 83.18 26.5967 82.8428C26.5465 82.501 26.4714 82.2093 26.3711 81.9678C26.2708 81.7262 26.1432 81.5303 25.9883 81.3799C25.8379 81.2295 25.6624 81.1201 25.4619 81.0518C25.266 80.9788 25.0449 80.9424 24.7988 80.9424C24.498 80.9424 24.2314 80.9993 23.999 81.1133C23.7666 81.2227 23.5706 81.3981 23.4111 81.6396C23.2562 81.8812 23.1377 82.1979 23.0557 82.5898C22.9736 82.9818 22.9326 83.458 22.9326 84.0186V85.9531C22.9326 86.3997 22.9577 86.7939 23.0078 87.1357C23.0625 87.4775 23.1423 87.7738 23.2471 88.0244C23.3519 88.2705 23.4795 88.4733 23.6299 88.6328C23.7803 88.7923 23.9535 88.9108 24.1494 88.9883C24.3499 89.0612 24.571 89.0977 24.8125 89.0977C25.1224 89.0977 25.3936 89.0384 25.626 88.9199C25.8584 88.8014 26.0521 88.6169 26.207 88.3662C26.3665 88.111 26.485 87.7852 26.5625 87.3887C26.64 86.9876 26.6787 86.5091 26.6787 85.9531ZM34.1162 80.0469L29.9668 90.8545H28.8799L33.0361 80.0469H34.1162ZM36.96 85.2627L35.9482 85.0029L36.4473 80.0469H41.5537V81.2158H37.5205L37.2197 83.9229C37.402 83.818 37.6322 83.7201 37.9102 83.6289C38.1927 83.5378 38.5163 83.4922 38.8809 83.4922C39.3411 83.4922 39.7536 83.5719 40.1182 83.7314C40.4827 83.8864 40.7926 84.1097 41.0479 84.4014C41.3076 84.693 41.5059 85.0439 41.6426 85.4541C41.7793 85.8643 41.8477 86.3223 41.8477 86.8281C41.8477 87.3066 41.7816 87.7464 41.6494 88.1475C41.5218 88.5485 41.3281 88.8994 41.0684 89.2002C40.8086 89.4964 40.4805 89.7266 40.084 89.8906C39.6921 90.0547 39.2295 90.1367 38.6963 90.1367C38.2952 90.1367 37.9147 90.082 37.5547 89.9727C37.1992 89.8587 36.8802 89.6878 36.5977 89.46C36.3197 89.2275 36.0918 88.9404 35.9141 88.5986C35.7409 88.2523 35.6315 87.8467 35.5859 87.3818H36.7891C36.8438 87.7555 36.9531 88.07 37.1172 88.3252C37.2812 88.5804 37.4954 88.7741 37.7598 88.9062C38.0286 89.0339 38.3408 89.0977 38.6963 89.0977C38.9971 89.0977 39.2637 89.0452 39.4961 88.9404C39.7285 88.8356 39.9245 88.6852 40.084 88.4893C40.2435 88.2933 40.3643 88.0563 40.4463 87.7783C40.5329 87.5003 40.5762 87.1882 40.5762 86.8418C40.5762 86.5273 40.5329 86.2357 40.4463 85.9668C40.3597 85.6979 40.2298 85.4632 40.0566 85.2627C39.888 85.0622 39.6807 84.9072 39.4346 84.7979C39.1885 84.6839 38.9059 84.627 38.5869 84.627C38.1631 84.627 37.8418 84.6839 37.623 84.7979C37.4089 84.9118 37.1878 85.0667 36.96 85.2627ZM49.7568 88.9609V90H43.2422V89.0908L46.5029 85.4609C46.904 85.0143 47.2139 84.6361 47.4326 84.3262C47.6559 84.0117 47.8109 83.7314 47.8975 83.4854C47.9886 83.2347 48.0342 82.9795 48.0342 82.7197C48.0342 82.3916 47.9658 82.0954 47.8291 81.8311C47.6969 81.5622 47.501 81.348 47.2412 81.1885C46.9814 81.029 46.667 80.9492 46.2979 80.9492C45.8558 80.9492 45.4867 81.0358 45.1904 81.209C44.8988 81.3776 44.68 81.6146 44.5342 81.9199C44.3883 82.2253 44.3154 82.5762 44.3154 82.9727H43.0508C43.0508 82.4121 43.1738 81.8994 43.4199 81.4346C43.666 80.9697 44.0306 80.6006 44.5137 80.3271C44.9967 80.0492 45.5915 79.9102 46.2979 79.9102C46.9268 79.9102 47.4645 80.0218 47.9111 80.2451C48.3577 80.4639 48.6995 80.7738 48.9365 81.1748C49.1781 81.5713 49.2988 82.0361 49.2988 82.5693C49.2988 82.861 49.2487 83.1572 49.1484 83.458C49.0527 83.7542 48.9183 84.0505 48.7451 84.3467C48.5765 84.6429 48.3783 84.9346 48.1504 85.2217C47.9271 85.5088 47.6878 85.7913 47.4326 86.0693L44.7666 88.9609H49.7568Z" fill="#D9D9D9"/>
</svg>
